<svg width="109.063" height="79.199" viewBox="0 0 28.856 20.955" xmlns="http://www.w3.org/2000/svg">
    <path d="m150.916 1097.573.959 5.733a.968.968 0 0 1-.184.757.884.884 0 0 1-.646.358 6.082 6.082 0 0 1-2.45-.425 1.134 1.134 0 0 1-.695-1.271 24.74 24.74 0 0 1 1.74-5.45.567.567 0 0 1 .531-.334 6.31 6.31 0 0 1 .02 0 .756.756 0 0 1 .725.632z" style="fill:none;stroke:#000" transform="matrix(.26458 0 0 .26458 -23.446 -272.356)"/>
    <path d="m152.73 1082.986 1.008 6.024a2.858 2.858 0 0 1-.535 2.212 2.773 2.773 0 0 1-2.063 1.11 7.972 7.972 0 0 1-3.673-.74 2.646 2.646 0 0 1-1.484-2.874 26.63 26.63 0 0 1 1.936-6.199 2.457 2.457 0 0 1 2.3-1.443 8.2 8.2 0 0 1 .457.024 2.268 2.268 0 0 1 2.054 1.886z" style="fill:none;stroke:#000" transform="matrix(.26458 0 0 .26458 -23.446 -272.356)"/>
    <path d="m154.594 1066.715 1.007 6.02a4.747 4.747 0 0 1-.887 3.662 4.663 4.663 0 0 1-3.485 1.864 9.861 9.861 0 0 1-4.56-.916 4.535 4.535 0 0 1-2.545-4.925 28.52 28.52 0 0 1 2.074-6.64 4.346 4.346 0 0 1 4.067-2.552 10.09 10.09 0 0 1 .564.03 4.157 4.157 0 0 1 3.765 3.458z" style="fill:none;stroke:#000" transform="matrix(.26458 0 0 .26458 -23.446 -272.356)"/>
    <path d="M151.465 1056.79h.97a1.699 1.699 0 0 1 1.642 1.26 4.443 4.443 0 0 1-.175 2.815 1.487 1.487 0 0 1-1.547.919 10.909 10.909 0 0 1-4.957-1.541 1.467 1.467 0 0 1-.222-2.292 3.958 3.958 0 0 1 1.736-.833 19.015 19.015 0 0 1 2.553-.328" style="fill:none;stroke:#000" transform="matrix(.26458 0 0 .26458 -23.446 -272.356)"/>
    <path d="m170.354 1059.758 4.278 1.167a1.134 1.134 0 0 1 .78.74l3.176 9.697a1.134 1.134 0 0 1-.48 1.317l-7.054 4.376a1.134 1.134 0 0 1-1.393-.155l-5.355-5.27a1.134 1.134 0 0 1-.275-1.18l2.906-8.362a1.134 1.134 0 0 1 .37-.52l2.048-1.607a1.134 1.134 0 0 1 .999-.203z" style="fill:none;stroke:#000" transform="matrix(.26458 0 0 .26458 -23.446 -272.356)"/>
    <path d="m170.831 1094.904 1.24.338a.378.378 0 0 1 .26.247l1.93 5.89a.378.378 0 0 1-.16.44l-3.015 1.87a.378.378 0 0 1-.464-.052l-2.297-2.261a.378.378 0 0 1-.092-.394l1.987-5.716a.378.378 0 0 1 .123-.173l.155-.122a.378.378 0 0 1 .333-.067z" style="fill:none;stroke:#000" transform="matrix(.26458 0 0 .26458 -23.446 -272.356)"/>
    <path d="m170.778 1079.641 2.38.649a1.134 1.134 0 0 1 .779.74l2.398 7.32a1.134 1.134 0 0 1-.48 1.316l-4.53 2.81a1.134 1.134 0 0 1-1.393-.156l-3.444-3.39a1.134 1.134 0 0 1-.276-1.18l2.332-6.708a1.134 1.134 0 0 1 .37-.52l.866-.679a1.134 1.134 0 0 1 .998-.202z" style="fill:none;stroke:#000" transform="matrix(.26458 0 0 .26458 -23.446 -272.356)"/>
    <path d="m194.004 1063.58.136.126a6.63 6.63 0 0 1 .834.978 2.886 2.886 0 0 1 .396.805 2.303 2.303 0 0 1 .03 1.436 3.053 3.053 0 0 0-.075 1.296 17.406 17.406 0 0 0 .52 1.713 6.59 6.59 0 0 0 .757 1.482 3.395 3.395 0 0 1 .52 1.228 2.683 2.683 0 0 1-.026 1.202 1.41 1.41 0 0 1-.849.964 16.4 16.4 0 0 0-3.018 2.095 372.328 372.328 0 0 1-1.874 1.702 14.701 14.701 0 0 1-1.253.962 2.054 2.054 0 0 1-1.796.276 12.436 12.436 0 0 1-1.593-.68 15.178 15.178 0 0 1-3.395-2.37 1.81 1.81 0 0 1-.328-2.253 12.329 12.329 0 0 1 1.382-1.891 6.054 6.054 0 0 0 .856-1.303 3.749 3.749 0 0 0 .212-1.86 10.402 10.402 0 0 0-.703-2.064 4.62 4.62 0 0 1-.375-1.294 2.781 2.781 0 0 1 .151-1.087 5.384 5.384 0 0 1 .931-1.234 10.696 10.696 0 0 0 .815-.98 9.849 9.849 0 0 0 .761-1.348 2.338 2.338 0 0 1 .846-.973 1.905 1.905 0 0 1 1.016-.269 2.149 2.149 0 0 1 1.548.59 13.36 13.36 0 0 0 2.771 2.168 5.668 5.668 0 0 1 .803.583" style="fill:none;stroke:#000" transform="matrix(.26458 0 0 .26458 -23.446 -272.356)"/>
    <path d="m191.326 1084.575.625.525a3.239 3.239 0 0 1 .64.724 2.48 2.48 0 0 1 .365.953 2.488 2.488 0 0 1-.019.893 2.417 2.417 0 0 0 .027 1.083 39.436 39.436 0 0 0 .404 1.462 33.585 33.585 0 0 0 .267.858 2.563 2.563 0 0 1 .108 1.1 1.264 1.264 0 0 1-.67.97 1.65 1.65 0 0 0-.454.35 15.988 15.988 0 0 1-1.409 1.361 8.497 8.497 0 0 0-.517.48 1.134 1.134 0 0 1-1.019.316 1.834 1.834 0 0 1-.697-.292 5.006 5.006 0 0 0-1.486-.7 2.895 2.895 0 0 1-.62-.257.92.92 0 0 1-.373-1.222 7.953 7.953 0 0 1 .965-1.467 4.316 4.316 0 0 0 .613-.982 3.016 3.016 0 0 0 .107-2.206 43.145 43.145 0 0 1-.399-1.241 3.238 3.238 0 0 1-.081-1.561 4.686 4.686 0 0 1 .497-1.371 1.52 1.52 0 0 1 .806-.693 1.69 1.69 0 0 1 1.12.17 3.672 3.672 0 0 1 1.2.747" style="fill:none;stroke:#000" transform="matrix(.26458 0 0 .26458 -23.446 -272.356)"/>
    <path d="M189.164 1059.134c.351-.034.697.058 1.058.064.44.01.9-.111 1.219-.42.483-.467.636-1.37.295-1.933-.16-.262-.426-.45-.576-.708-.255-.434-.178-1.065-.46-1.474-.323-.467-1.114-.645-1.701-.465-.548.168-.92.647-1.194 1.13-.045.081-.088.163-.142.236-.094.127-.22.23-.353.323-.473.333-1.033.536-1.41.962-.372.419-.566 1.053-.434 1.624.055.239.167.467.329.621.408.389 1.132.31 1.76.207.524-.086.98-.188 1.473-.163h.061c.025 0 .05 0 .075-.01z" style="fill:none;stroke:#000" transform="matrix(.26458 0 0 .26458 -23.446 -272.356)"/>
    <path d="m168.629 1056.692.073-.27a.378.378 0 0 1 .247-.26l3.949-1.618a.378.378 0 0 1 .439.16l1.243 2.005a.378.378 0 0 1-.051.464l-1.51 1.533a.378.378 0 0 1-.393.092l-3.756-1.65a.378.378 0 0 1-.241-.456z" style="fill:none;stroke:#000" transform="matrix(.26458 0 0 .26458 -23.446 -272.356)"/>
    <path d="M151.511 1052.56h.444a.756.756 0 0 1 .754.708 2.932 2.932 0 0 1-.017.553.756.756 0 0 1-.844.655 9.397 9.397 0 0 1-1.579-.338.756.756 0 0 1 .126-1.473 17.503 17.503 0 0 1 1.116-.105z" style="fill:none;stroke:#000" transform="matrix(.26458 0 0 .26458 -23.446 -272.356)"/>
    <path d="M104.43 1071.143a7.56 7.56 0 1 0-15.118 0 7.56 7.56 0 1 0 15.118 0z" style="fill:none;stroke:#000" transform="matrix(.26458 0 0 .26458 -23.446 -272.356)"/>
    <path d="M99.139 1036.838a2.268 2.268 0 1 0-4.536 0 2.268 2.268 0 1 0 4.536 0z" style="fill:none;stroke:#000" transform="matrix(.26458 0 0 .26458 -23.446 -272.356)"/>
    <path d="M100.65 1044.272a3.78 3.78 0 1 0-7.559 0 3.78 3.78 0 1 0 7.56 0z" style="fill:none;stroke:#000" transform="matrix(.26458 0 0 .26458 -23.446 -272.356)"/>
    <path d="M102.918 1056.003a6.047 6.047 0 1 0-12.094 0 6.047 6.047 0 1 0 12.094 0z" style="fill:none;stroke:#000" transform="matrix(.26458 0 0 .26458 -23.446 -272.356)"/>
    <path d="M98.383 1031.39a1.512 1.512 0 1 0-3.024 0 1.512 1.512 0 1 0 3.024 0z" style="fill:none;stroke:#000" transform="matrix(.26458 0 0 .26458 -23.446 -272.356)"/>
    <path d="M89.115 1095.99v7.789a.378.378 0 0 0 .378.378h.714a.378.378 0 0 0 .377-.378v-7.79a.378.378 0 0 0-.377-.378h-.714a.378.378 0 0 0-.378.378z" style="fill:none;stroke:#000" transform="matrix(.26458 0 0 .26458 -23.446 -272.356)"/>
    <path d="M106.881 1105.81v-11.57a.378.378 0 0 0-.378-.378h-.713a.378.378 0 0 0-.378.378v11.57a.378.378 0 0 0 .378.377h.713a.378.378 0 0 0 .378-.378z" style="fill:none;stroke:#000" transform="matrix(.26458 0 0 .26458 -23.446 -272.356)"/>
    <path d="M100.028 1105.81v-11.57a2.268 2.268 0 0 0-2.268-2.268h-.713a2.268 2.268 0 0 0-2.268 2.268v11.57a2.268 2.268 0 0 0 2.268 2.267h.713a2.268 2.268 0 0 0 2.268-2.268z" style="fill:none;stroke:#000" transform="matrix(.26458 0 0 .26458 -23.446 -272.356)"/>
</svg>
